<svg height="800" width="800" xmlns="http://www.w3.org/2000/svg" viewBox="0 0 511.882 511.882" xml:space="preserve"><g stroke-width="0"/><g stroke-linecap="round" stroke-linejoin="round"/><path style="fill:#f6bb42" d="m350.216 176.572-71.842-17.957L37.038 264.123 0 338.207l125.753 36.117L386.13 258.531z"/><path style="fill:#ffce54" d="m350.216 176.572-242.46 107.773 17.997 89.979L386.13 258.531z"/><path style="fill:#e8aa3d" d="m107.756 284.345-70.718-20.222L.015 338.207l125.738 36.117z"/><path style="fill:#f6bb42" d="m475.969 212.682-71.842-17.965-241.336 105.515-37.038 74.092 125.751 36.086 260.378-115.785z"/><path style="fill:#ffce54" d="M475.969 212.682 233.508 320.431l17.996 89.979 260.378-115.785z"/><path style="fill:#e8aa3d" d="m233.508 320.431-70.717-20.199-37.038 74.092 125.751 36.086z"/><path style="fill:#f6bb42" d="m396.316 119.429-71.828-17.956-220.621 96.962-37.024 74.084 125.753 36.102 239.649-107.242z"/><path style="fill:#ffce54" d="M396.316 119.429 174.6 218.641l17.996 89.98 239.649-107.242z"/><path style="fill:#e8aa3d" d="m174.6 218.641-70.733-20.206-37.024 74.084 125.753 36.102z"/></svg>
