<svg xmlns="http://www.w3.org/2000/svg" width="500" viewBox="0 0 375 375" height="500" version="1.0"><defs><clipPath id="a"><path d="M37 48.113h301V338.7H37Zm0 0"/></clipPath><clipPath id="b"><path d="m217.855 58.309 98.176 71.18c18.106 13.124 25.7 36.413 18.817 57.687l-37.489 115.847c-6.882 21.27-26.691 35.676-49.046 35.676H126.68c-22.356 0-42.16-14.406-49.043-35.676L40.148 187.176c-6.886-21.274.711-44.563 18.813-57.688l98.176-71.18c18.11-13.128 42.61-13.128 60.718 0m0 0"/></clipPath><clipPath id="d"><path d="M0 .113h301V290.7H0Zm0 0"/></clipPath><clipPath id="e"><path d="m180.855 10.309 98.176 71.18c18.106 13.124 25.7 36.413 18.817 57.687l-37.489 115.847c-6.882 21.27-26.691 35.676-49.046 35.676H89.68c-22.356 0-42.16-14.406-49.043-35.676L3.148 139.176c-6.886-21.274.711-44.563 18.813-57.688l98.176-71.18c18.11-13.128 42.61-13.128 60.718 0m0 0"/></clipPath><clipPath id="c"><path d="M0 0h301v291H0z"/></clipPath><clipPath id="f"><path d="M37.547 48.215H338V338.55H37.547Zm0 0"/></clipPath><clipPath id="g"><path d="m217.855 58.309 98.172 71.175c18.102 13.125 25.7 36.414 18.813 57.688l-37.485 115.84c-6.882 21.27-26.69 35.68-49.043 35.68H126.685c-22.356 0-42.16-14.41-49.043-35.68l-37.489-115.84c-6.882-21.274.711-44.563 18.813-57.688l98.172-71.175c18.11-13.13 42.61-13.13 60.718 0m0 0"/></clipPath></defs><g clip-path="url(#a)"><g clip-path="url(#b)"><g clip-path="url(#c)" transform="translate(37 48)"><g clip-path="url(#d)"><g clip-path="url(#e)"><path fill="#c1ff72" d="M-8.398-11.7h317.757v302.4H-8.398Zm0 0"/></g></g></g></g></g><g clip-path="url(#f)"><g clip-path="url(#g)"><path fill="none" d="m217.855 58.309 98.172 71.175c18.102 13.125 25.7 36.414 18.813 57.688l-37.485 115.84c-6.882 21.27-26.69 35.68-49.042 35.68h-121.63c-22.355 0-42.16-14.41-49.042-35.68l-37.489-115.84c-6.882-21.274.711-44.563 18.813-57.688l98.172-71.175c18.11-13.13 42.61-13.13 60.718 0Zm0 0" stroke="#9ee34a" stroke-width="15"/></g></g></svg>
