<svg xmlns="http://www.w3.org/2000/svg" xmlns:xlink="http://www.w3.org/1999/xlink" width="500" zoomAndPan="magnify" viewBox="0 0 375 374.999991" height="500" preserveAspectRatio="xMidYMid meet" version="1.0"><defs><clipPath id="d13b04e284"><path d="M 37 48.113281 L 338 48.113281 L 338 338.699219 L 37 338.699219 Z M 37 48.113281 " clip-rule="nonzero"/></clipPath><clipPath id="87aa10d033"><path d="M 217.855469 58.308594 L 316.03125 129.488281 C 334.136719 142.613281 341.730469 165.902344 334.847656 187.175781 L 297.359375 303.023438 C 290.476562 324.292969 270.667969 338.699219 248.3125 338.699219 L 126.679688 338.699219 C 104.324219 338.699219 84.519531 324.292969 77.636719 303.023438 L 40.148438 187.175781 C 33.261719 165.902344 40.859375 142.613281 58.960938 129.488281 L 157.136719 58.308594 C 175.246094 45.179688 199.746094 45.179688 217.855469 58.308594 Z M 217.855469 58.308594 " clip-rule="nonzero"/></clipPath><clipPath id="ef0b6a21dc"><path d="M 0 0.113281 L 301 0.113281 L 301 290.699219 L 0 290.699219 Z M 0 0.113281 " clip-rule="nonzero"/></clipPath><clipPath id="9f74931a53"><path d="M 180.855469 10.308594 L 279.03125 81.488281 C 297.136719 94.613281 304.730469 117.902344 297.847656 139.175781 L 260.359375 255.023438 C 253.476562 276.292969 233.667969 290.699219 211.3125 290.699219 L 89.679688 290.699219 C 67.324219 290.699219 47.519531 276.292969 40.636719 255.023438 L 3.148438 139.175781 C -3.738281 117.902344 3.859375 94.613281 21.960938 81.488281 L 120.136719 10.308594 C 138.246094 -2.820312 162.746094 -2.820312 180.855469 10.308594 Z M 180.855469 10.308594 " clip-rule="nonzero"/></clipPath><clipPath id="0178a7c089"><rect x="0" width="301" y="0" height="291"/></clipPath><clipPath id="3d7a8ff139"><path d="M 37.546875 48.214844 L 338 48.214844 L 338 338.550781 L 37.546875 338.550781 Z M 37.546875 48.214844 " clip-rule="nonzero"/></clipPath><clipPath id="895370a141"><path d="M 217.855469 58.308594 L 316.027344 129.484375 C 334.128906 142.609375 341.726562 165.898438 334.839844 187.171875 L 297.355469 303.011719 C 290.472656 324.28125 270.664062 338.691406 248.3125 338.691406 L 126.683594 338.691406 C 104.328125 338.691406 84.523438 324.28125 77.640625 303.011719 L 40.152344 187.171875 C 33.269531 165.898438 40.863281 142.609375 58.964844 129.484375 L 157.136719 58.308594 C 175.246094 45.179688 199.746094 45.179688 217.855469 58.308594 Z M 217.855469 58.308594 " clip-rule="nonzero"/></clipPath></defs><g clip-path="url(#d13b04e284)"><g clip-path="url(#87aa10d033)"><g transform="matrix(1, 0, 0, 1, 37, 48)"><g clip-path="url(#0178a7c089)"><g clip-path="url(#ef0b6a21dc)"><g clip-path="url(#9f74931a53)"><path fill="#67008d" d="M -8.398438 -11.699219 L 309.359375 -11.699219 L 309.359375 290.699219 L -8.398438 290.699219 Z M -8.398438 -11.699219 " fill-opacity="1" fill-rule="nonzero"/></g></g></g></g></g></g><g clip-path="url(#3d7a8ff139)"><g clip-path="url(#895370a141)"><path stroke-linecap="butt" transform="matrix(0.75, 0, 0, 0.75, 28.607632, 36.299294)" fill="none" stroke-linejoin="miter" d="M 252.330465 29.345734 L 383.226307 124.246782 C 407.361726 141.746783 417.491935 172.798869 408.309642 201.163454 L 358.330472 355.616589 C 349.153389 383.975966 322.741928 403.189509 292.939843 403.189509 L 130.767958 403.189509 C 100.960664 403.189509 74.554412 383.975966 65.377328 355.616589 L 15.39295 201.163454 C 6.215866 172.798869 16.340867 141.746783 40.476285 124.246782 L 171.372127 29.345734 C 195.517962 11.840525 228.184631 11.840525 252.330465 29.345734 Z M 252.330465 29.345734 " stroke="#8a00bd" stroke-width="20" stroke-opacity="1" stroke-miterlimit="4"/></g></g></svg>