<svg xmlns="http://www.w3.org/2000/svg" xmlns:xlink="http://www.w3.org/1999/xlink" width="500" zoomAndPan="magnify" viewBox="0 0 375 374.999991" height="500" preserveAspectRatio="xMidYMid meet" version="1.0"><defs><g/><clipPath id="b5d021d36a"><path d="M 9 12 L 366 12 L 366 356.835938 L 9 356.835938 Z M 9 12 " clip-rule="nonzero"/></clipPath><clipPath id="6dabc16d23"><path d="M 217.855469 22.011719 L 344.632812 113.925781 C 362.738281 127.050781 370.332031 150.339844 363.449219 171.613281 L 315.054688 321.15625 C 308.171875 342.425781 288.367188 356.835938 266.011719 356.835938 L 108.980469 356.835938 C 86.628906 356.835938 66.820312 342.425781 59.9375 321.15625 L 11.546875 171.613281 C 4.660156 150.339844 12.257812 127.050781 30.359375 113.925781 L 157.136719 22.011719 C 175.246094 8.882812 199.746094 8.882812 217.855469 22.011719 Z M 217.855469 22.011719 " clip-rule="nonzero"/></clipPath><clipPath id="0d5393b482"><path d="M 0 0 L 357 0 L 357 344.835938 L 0 344.835938 Z M 0 0 " clip-rule="nonzero"/></clipPath><clipPath id="7eea9c5e5d"><path d="M 208.855469 10.011719 L 335.632812 101.925781 C 353.738281 115.050781 361.332031 138.339844 354.449219 159.613281 L 306.054688 309.15625 C 299.171875 330.425781 279.367188 344.835938 257.011719 344.835938 L 99.980469 344.835938 C 77.628906 344.835938 57.820312 330.425781 50.9375 309.15625 L 2.546875 159.613281 C -4.339844 138.339844 3.257812 115.050781 21.359375 101.925781 L 148.136719 10.011719 C 166.246094 -3.117188 190.746094 -3.117188 208.855469 10.011719 Z M 208.855469 10.011719 " clip-rule="nonzero"/></clipPath><clipPath id="c030090ab9"><rect x="0" width="357" y="0" height="345"/></clipPath><clipPath id="46adecbb92"><path d="M 9 12 L 366 12 L 366 356.824219 L 9 356.824219 Z M 9 12 " clip-rule="nonzero"/></clipPath><clipPath id="9c7ef75f7d"><path d="M 217.859375 22.011719 L 344.632812 113.921875 C 362.734375 127.046875 370.332031 150.335938 363.445312 171.609375 L 315.054688 321.148438 C 308.171875 342.414062 288.367188 356.824219 266.011719 356.824219 L 108.988281 356.824219 C 86.632812 356.824219 66.828125 342.414062 59.945312 321.148438 L 11.554688 171.609375 C 4.667969 150.335938 12.265625 127.046875 30.367188 113.921875 L 157.140625 22.011719 C 175.25 8.878906 199.75 8.878906 217.859375 22.011719 Z M 217.859375 22.011719 " clip-rule="nonzero"/></clipPath></defs><g clip-path="url(#b5d021d36a)"><g clip-path="url(#6dabc16d23)"><g transform="matrix(1, 0, 0, 1, 9, 12)"><g clip-path="url(#c030090ab9)"><g clip-path="url(#0d5393b482)"><g clip-path="url(#7eea9c5e5d)"><path fill="#c1ff72" d="M -9 -12 L 365.957031 -12 L 365.957031 344.835938 L -9 344.835938 Z M -9 -12 " fill-opacity="1" fill-rule="nonzero"/></g></g></g></g></g></g><g clip-path="url(#46adecbb92)"><g clip-path="url(#9c7ef75f7d)"><path stroke-linecap="butt" transform="matrix(0.75, 0, 0, 0.75, 0.00909012, 0)" fill="none" stroke-linejoin="miter" d="M 290.467066 29.34896 L 459.498327 151.895843 C 483.633745 169.395844 493.763954 200.44793 484.581662 228.812515 L 420.060824 428.197945 C 410.88374 456.552113 384.477488 475.765656 354.670195 475.765656 L 145.305598 475.765656 C 115.498304 475.765656 89.092052 456.552113 79.914968 428.197945 L 15.394131 228.812515 C 6.211839 200.44793 16.342048 169.395844 40.477466 151.895843 L 209.508727 29.34896 C 233.654562 11.838542 266.321231 11.838542 290.467066 29.34896 Z M 290.467066 29.34896 " stroke="#9ee34a" stroke-width="20" stroke-opacity="1" stroke-miterlimit="4"/></g></g><g fill="#000000" fill-opacity="1"><g transform="translate(112.488278, 283.499981)"><g><path d="M 46.015625 -177.734375 L 74.953125 -88.875 L 106.203125 -177.734375 L 134.28125 -177.734375 L 134.28125 0 L 112.3125 0 L 112.3125 -70.921875 L 114.140625 -145.140625 L 81.296875 -49.4375 L 68.359375 -49.4375 L 38.203125 -142.578125 L 40.046875 -70.921875 L 40.046875 0 L 18.0625 0 L 18.0625 -177.734375 Z M 46.015625 -177.734375 "/></g></g></g></svg>