<svg xmlns="http://www.w3.org/2000/svg" xmlns:xlink="http://www.w3.org/1999/xlink" width="500" zoomAndPan="magnify" viewBox="0 0 375 374.999991" height="500" preserveAspectRatio="xMidYMid meet" version="1.0"><defs><g/><clipPath id="a8d7725c40"><path d="M 37 48.113281 L 338 48.113281 L 338 338.765625 L 37 338.765625 Z M 37 48.113281 " clip-rule="nonzero"/></clipPath><clipPath id="3dfde4a9f8"><path d="M 217.855469 58.3125 L 316.035156 129.511719 C 334.136719 142.636719 341.730469 165.925781 334.847656 187.203125 L 297.355469 303.085938 C 290.476562 324.355469 270.667969 338.765625 248.3125 338.765625 L 126.679688 338.765625 C 104.324219 338.765625 84.519531 324.355469 77.636719 303.085938 L 40.144531 187.203125 C 33.261719 165.925781 40.855469 142.636719 58.960938 129.511719 L 157.140625 58.3125 C 175.246094 45.183594 199.746094 45.183594 217.855469 58.3125 Z M 217.855469 58.3125 " clip-rule="nonzero"/></clipPath><clipPath id="f34bfb52db"><path d="M 0 0.113281 L 301 0.113281 L 301 290.765625 L 0 290.765625 Z M 0 0.113281 " clip-rule="nonzero"/></clipPath><clipPath id="2a6909c0af"><path d="M 180.855469 10.3125 L 279.035156 81.511719 C 297.136719 94.636719 304.730469 117.925781 297.847656 139.203125 L 260.355469 255.085938 C 253.476562 276.355469 233.667969 290.765625 211.3125 290.765625 L 89.679688 290.765625 C 67.324219 290.765625 47.519531 276.355469 40.636719 255.085938 L 3.144531 139.203125 C -3.738281 117.925781 3.855469 94.636719 21.960938 81.511719 L 120.140625 10.3125 C 138.246094 -2.816406 162.746094 -2.816406 180.855469 10.3125 Z M 180.855469 10.3125 " clip-rule="nonzero"/></clipPath><clipPath id="d5be81047a"><rect x="0" width="301" y="0" height="291"/></clipPath><clipPath id="f963440980"><path d="M 37.542969 48.214844 L 338 48.214844 L 338 338.550781 L 37.542969 338.550781 Z M 37.542969 48.214844 " clip-rule="nonzero"/></clipPath><clipPath id="b10a77d5ab"><path d="M 217.855469 58.3125 L 316.03125 129.507812 C 334.132812 142.636719 341.730469 165.925781 334.847656 187.199219 L 297.355469 303.082031 C 290.472656 324.351562 270.667969 338.761719 248.3125 338.761719 L 126.679688 338.761719 C 104.328125 338.761719 84.519531 324.351562 77.640625 303.082031 L 40.148438 187.199219 C 33.265625 165.925781 40.859375 142.636719 58.960938 129.507812 L 157.140625 58.3125 C 175.246094 45.183594 199.746094 45.183594 217.855469 58.3125 Z M 217.855469 58.3125 " clip-rule="nonzero"/></clipPath></defs><g clip-path="url(#a8d7725c40)"><g clip-path="url(#3dfde4a9f8)"><g transform="matrix(1, 0, 0, 1, 37, 48)"><g clip-path="url(#d5be81047a)"><g clip-path="url(#f34bfb52db)"><g clip-path="url(#2a6909c0af)"><path fill="#3e008d" d="M -8.398438 -11.699219 L 309.429688 -11.699219 L 309.429688 290.765625 L -8.398438 290.765625 Z M -8.398438 -11.699219 " fill-opacity="1" fill-rule="nonzero"/></g></g></g></g></g></g><g clip-path="url(#f963440980)"><g clip-path="url(#b10a77d5ab)"><path stroke-linecap="butt" transform="matrix(0.75, 0, 0, 0.75, 28.604594, 36.299247)" fill="none" stroke-linejoin="miter" d="M 252.3345 29.351004 L 383.235541 124.278088 C 407.370958 141.783296 417.501167 172.835379 408.324083 201.199963 L 358.3345 355.71038 C 349.157416 384.069755 322.751166 403.283296 292.943875 403.283296 L 130.766791 403.283296 C 100.964708 403.283296 74.553249 384.069755 65.381374 355.71038 L 15.391791 201.199963 C 6.214708 172.835379 16.339708 141.783296 40.475124 124.278088 L 171.381374 29.351004 C 195.521999 11.845796 228.188666 11.845796 252.3345 29.351004 Z M 252.3345 29.351004 " stroke="#611cb5" stroke-width="20" stroke-opacity="1" stroke-miterlimit="4"/></g></g><g fill="#fdfdfd" fill-opacity="1"><g transform="translate(123.930964, 277.354249)"><g><path d="M 39 -150.625 L 63.515625 -75.3125 L 90 -150.625 L 113.796875 -150.625 L 113.796875 0 L 95.171875 0 L 95.171875 -60.109375 L 96.71875 -123 L 68.890625 -41.890625 L 57.9375 -41.890625 L 32.375 -120.828125 L 33.9375 -60.109375 L 33.9375 0 L 15.3125 0 L 15.3125 -150.625 Z M 39 -150.625 "/></g></g></g></svg>