<svg xmlns="http://www.w3.org/2000/svg" width="500" viewBox="0 0 375 375" height="500" version="1.0"><defs><clipPath id="b"><path d="M36 35.113h301V325.7H36Zm0 0"/></clipPath><clipPath id="c"><path d="m216.855 45.309 98.176 71.18c18.106 13.124 25.7 36.413 18.817 57.687l-37.489 115.847c-6.882 21.27-26.691 35.676-49.046 35.676H125.68c-22.356 0-42.16-14.406-49.043-35.676L39.148 174.176c-6.886-21.274.711-44.563 18.813-57.688l98.176-71.18c18.11-13.128 42.61-13.128 60.718 0m0 0"/></clipPath><clipPath id="e"><path d="M0 .113h301V290.7H0Zm0 0"/></clipPath><clipPath id="f"><path d="m180.855 10.309 98.176 71.18c18.106 13.124 25.7 36.413 18.817 57.687l-37.489 115.847c-6.882 21.27-26.691 35.676-49.046 35.676H89.68c-22.356 0-42.16-14.406-49.043-35.676L3.148 139.176c-6.886-21.274.711-44.563 18.813-57.688l98.176-71.18c18.11-13.128 42.61-13.128 60.718 0m0 0"/></clipPath><clipPath id="d"><path d="M0 0h301v291H0z"/></clipPath><clipPath id="g"><path d="M36.547 35.215H337V325.69H36.547Zm0 0"/></clipPath><clipPath id="h"><path d="m216.86 45.309 98.171 71.175c18.102 13.125 25.7 36.414 18.813 57.688l-37.485 115.844c-6.882 21.27-26.691 35.675-49.043 35.675H125.684c-22.352 0-42.16-14.406-49.043-35.675L39.156 174.172c-6.886-21.274.711-44.563 18.813-57.688L156.14 45.31c18.109-13.13 42.609-13.13 60.718 0m0 0"/></clipPath><clipPath id="a"><path d="M0 0h372v358H0z"/></clipPath></defs><g clip-path="url(#a)" transform="translate(1 13)"><g clip-path="url(#b)"><g clip-path="url(#c)"><g clip-path="url(#d)" transform="translate(36 35)"><g clip-path="url(#e)"><g clip-path="url(#f)"><path fill="#c1ff72" d="M-8.398-11.7h317.757v302.4H-8.398Zm0 0"/></g></g></g></g></g><g clip-path="url(#g)"><g clip-path="url(#h)"><path fill="none" d="m216.86 45.309 98.171 71.175c18.102 13.125 25.7 36.414 18.813 57.688l-37.485 115.844c-6.882 21.27-26.691 35.675-49.043 35.675H125.684c-22.352 0-42.16-14.406-49.043-35.675L39.156 174.172c-6.886-21.274.711-44.563 18.813-57.688L156.14 45.31c18.109-13.13 42.609-13.13 60.718 0Zm0 0" stroke="#9ee34a" stroke-width="15"/></g></g><path d="m161.931 112.928 24.516 75.313 26.484-75.313h23.797v150.625h-18.625v-60.11l1.547-62.89-27.829 81.11h-10.953l-25.562-78.938 1.563 60.719v60.109h-18.627V112.928Zm0 0"/></g></svg>
